<?xml version="1.0" encoding="utf-8"?>
<!-- Generator: Adobe Illustrator 25.2.1, SVG Export Plug-In . SVG Version: 6.00 Build 0)  -->
<svg version="1.1" xmlns="http://www.w3.org/2000/svg" xmlns:xlink="http://www.w3.org/1999/xlink"
     viewBox="0 0 100 100">
  <style type="text/css">
    .logo-part{fill:#DEAF14;}
  </style>
  <g transform="translate(-5, -105) scale(1.2)">
    <path class="logo-part" d="M58.5,133.6l8.9,7.4l2.1,11.5l-5.9,10.1l-10.9,4l-10.9-4l-5.8-10.1l2-11.5l8.9-7.4 M69.3,189.3l-5-11.4l15.1,5.8 M66.4,190.1l-4.5-11.6l-6.5,14.7 M91.4,168.5l-11.1-5.6l15.3-5.2 M89.9,170.5l-10.9-6.1l4.4,15.5 M94.4,138.5l-11.9,3.7l7.5-14.3 M94.7,140.8l-12.2,2.4l13.4,9 M78.6,116.1l-7.4,10l-2.5-15.9 M80,117.2l-7.9,9.7l16-1.5 M50,106.4l0.3,12.4l-11.7-11.1 M55.3,106.7L54,119.1l12.6-10 M22.5,118.1l9.4,9l-16.1-0.3 M25.4,116.1l8.2,9.4l1.1-16.1 M9.5,144.7l12.4,1.4L9.4,156.2 M10.2,141.5l12.3,1.9l-9.5-13 M15.5,171.9l10.9-6L22,181.4 M14,169l11.2-5.5l-15.2-5.2 M38.9,190.6l4.5-11.6l6.5,14.7"/>
  </g>
</svg>
